<?xml version="1.0" encoding="utf-8"?>
<!-- Generator: Adobe Illustrator 25.3.1, SVG Export Plug-In . SVG Version: 6.00 Build 0)  -->
<svg version="1.1" id="Layer_1" xmlns="http://www.w3.org/2000/svg" xmlns:xlink="http://www.w3.org/1999/xlink" x="0px" y="0px"
	 viewBox="0 0 41.72 41.72" style="enable-background:new 0 0 41.72 41.72;" xml:space="preserve">
<style type="text/css">
	.st0{fill:#191919;}
	.st1{fill:#5AFF6D;}
</style>
<rect x="0.36" y="0.36" class="st0" width="41" height="41"/>
<g>
	<g>
		<path class="st1" d="M19.84,20.56c1-1.27,1.91-2.34,2.73-3.48c2.19-3.06,5.34-3.43,7.9-2.74c2.93,0.78,4.81,3.02,5.22,6.32
			c0.11,0.89,0.12,1.83-0.01,2.72c-0.51,3.63-2.95,6.02-6.65,6.29c-2.56,0.19-5.14,0.06-7.71,0.09c-0.44,0-0.46-0.26-0.46-0.58
			c0-1.55,0-3.1,0-4.65c0-0.24,0-0.48,0-0.89c-0.63,0.68-1.12,1.18-1.07,2.04c0.07,1.16,0,2.32,0.02,3.48
			c0.01,0.44-0.14,0.62-0.59,0.59c-0.45-0.03-0.91-0.04-1.37,0c-0.54,0.05-0.76-0.15-0.69-0.69c0.03-0.24,0.01-0.49,0.01-0.84
			c-0.28,0.18-0.48,0.28-0.65,0.42c-3.46,2.74-10.58,1.56-11.49-4.95c-0.16-1.11-0.15-2.29,0.03-3.39c0.61-3.64,3.41-5.89,7.38-5.99
			c2.25-0.06,4.51,0,6.76-0.03c0.51-0.01,0.61,0.22,0.6,0.66c-0.02,1.57-0.01,3.14,0,4.71C19.8,19.89,19.82,20.12,19.84,20.56z
			 M23.46,27.28c2.16-0.12,4.25-0.1,6.31-0.38c1.34-0.18,2.31-1.16,2.85-2.42c0.82-1.92,0.75-3.83-0.31-5.64
			c-1.03-1.77-3.32-2.61-5.35-2.06c-1.79,0.49-3.68,2.48-3.52,4.51c0.09,1.11,0.01,2.23,0.01,3.35
			C23.46,25.45,23.46,26.26,23.46,27.28z M17.2,20.55c0-1.05-0.01-2.09,0.01-3.14c0.01-0.37-0.12-0.53-0.51-0.52
			c-1.5,0.02-3.01-0.03-4.51,0.03c-2.2,0.09-3.82,1.34-4.41,3.35c-0.4,1.35-0.36,2.71,0.12,4.03c0.82,2.26,3.05,3.51,5.46,3.08
			c2.22-0.4,3.84-2.38,3.85-4.7C17.2,21.96,17.2,21.25,17.2,20.55z"/>
	</g>
	<g>
		<path class="st1" d="M20.9,17.62c-0.02-0.3-0.04-0.51-0.04-0.73c0-2.18,0-4.36,0-6.54c0-0.87,0-0.87,0.91-0.87
			c0.39,0,0.77,0.02,1.16,0c0.42-0.03,0.55,0.16,0.55,0.56c-0.01,1.36,0.01,2.72,0,4.09c0,0.21-0.07,0.46-0.19,0.63
			c-0.69,0.9-1.4,1.79-2.11,2.67C21.12,17.48,21.04,17.52,20.9,17.62z"/>
	</g>
</g>
</svg>
